<svg aria-roledescription="flowchart-v2" role="graphics-document document" viewBox="-8 -8 248.203125 261.5" style="max-width: 100%;" xmlns="http://www.w3.org/2000/svg" width="100%" id="graph-div" height="100%" xmlns:xlink="http://www.w3.org/1999/xlink"><style>@import url("https://cdnjs.cloudflare.com/ajax/libs/font-awesome/6.4.2/css/all.min.css");'</style><style>#graph-div{font-family:"trebuchet ms",verdana,arial,sans-serif;font-size:16px;fill:#ccc;}#graph-div .error-icon{fill:#a44141;}#graph-div .error-text{fill:#ddd;stroke:#ddd;}#graph-div .edge-thickness-normal{stroke-width:2px;}#graph-div .edge-thickness-thick{stroke-width:3.5px;}#graph-div .edge-pattern-solid{stroke-dasharray:0;}#graph-div .edge-pattern-dashed{stroke-dasharray:3;}#graph-div .edge-pattern-dotted{stroke-dasharray:2;}#graph-div .marker{fill:lightgrey;stroke:lightgrey;}#graph-div .marker.cross{stroke:lightgrey;}#graph-div svg{font-family:"trebuchet ms",verdana,arial,sans-serif;font-size:16px;}#graph-div .label{font-family:"trebuchet ms",verdana,arial,sans-serif;color:#ccc;}#graph-div .cluster-label text{fill:#F9FFFE;}#graph-div .cluster-label span,#graph-div p{color:#F9FFFE;}#graph-div .label text,#graph-div span,#graph-div p{fill:#ccc;color:#ccc;}#graph-div .node rect,#graph-div .node circle,#graph-div .node ellipse,#graph-div .node polygon,#graph-div .node path{fill:#1f2020;stroke:#81B1DB;stroke-width:1px;}#graph-div .flowchart-label text{text-anchor:middle;}#graph-div .node .label{text-align:center;}#graph-div .node.clickable{cursor:pointer;}#graph-div .arrowheadPath{fill:lightgrey;}#graph-div .edgePath .path{stroke:lightgrey;stroke-width:2.0px;}#graph-div .flowchart-link{stroke:lightgrey;fill:none;}#graph-div .edgeLabel{background-color:hsl(0, 0%, 34.4117647059%);text-align:center;}#graph-div .edgeLabel rect{opacity:0.5;background-color:hsl(0, 0%, 34.4117647059%);fill:hsl(0, 0%, 34.4117647059%);}#graph-div .labelBkg{background-color:rgba(87.75, 87.75, 87.75, 0.5);}#graph-div .cluster rect{fill:hsl(180, 1.5873015873%, 28.3529411765%);stroke:rgba(255, 255, 255, 0.25);stroke-width:1px;}#graph-div .cluster text{fill:#F9FFFE;}#graph-div .cluster span,#graph-div p{color:#F9FFFE;}#graph-div div.mermaidTooltip{position:absolute;text-align:center;max-width:200px;padding:2px;font-family:"trebuchet ms",verdana,arial,sans-serif;font-size:12px;background:hsl(20, 1.5873015873%, 12.3529411765%);border:1px solid rgba(255, 255, 255, 0.25);border-radius:2px;pointer-events:none;z-index:100;}#graph-div .flowchartTitleText{text-anchor:middle;font-size:18px;fill:#ccc;}#graph-div :root{--mermaid-font-family:"trebuchet ms",verdana,arial,sans-serif;}#graph-div .rust rect{color:#FF2C2D!important;}#graph-div .rust polygon{color:#FF2C2D!important;}#graph-div .rust ellipse{color:#FF2C2D!important;}#graph-div .rust circle{color:#FF2C2D!important;}#graph-div .rust path{color:#FF2C2D!important;}#graph-div .rust tspan{fill:#FF2C2D!important;}</style><g><marker orient="auto" markerHeight="12" markerWidth="12" markerUnits="userSpaceOnUse" refY="5" refX="6" viewBox="0 0 10 10" class="marker flowchart" id="graph-div_flowchart-pointEnd"><path style="stroke-width: 1; stroke-dasharray: 1, 0;" class="arrowMarkerPath" d="M 0 0 L 10 5 L 0 10 z"></path></marker><marker orient="auto" markerHeight="12" markerWidth="12" markerUnits="userSpaceOnUse" refY="5" refX="4.5" viewBox="0 0 10 10" class="marker flowchart" id="graph-div_flowchart-pointStart"><path style="stroke-width: 1; stroke-dasharray: 1, 0;" class="arrowMarkerPath" d="M 0 5 L 10 10 L 10 0 z"></path></marker><marker orient="auto" markerHeight="11" markerWidth="11" markerUnits="userSpaceOnUse" refY="5" refX="11" viewBox="0 0 10 10" class="marker flowchart" id="graph-div_flowchart-circleEnd"><circle style="stroke-width: 1; stroke-dasharray: 1, 0;" class="arrowMarkerPath" r="5" cy="5" cx="5"></circle></marker><marker orient="auto" markerHeight="11" markerWidth="11" markerUnits="userSpaceOnUse" refY="5" refX="-1" viewBox="0 0 10 10" class="marker flowchart" id="graph-div_flowchart-circleStart"><circle style="stroke-width: 1; stroke-dasharray: 1, 0;" class="arrowMarkerPath" r="5" cy="5" cx="5"></circle></marker><marker orient="auto" markerHeight="11" markerWidth="11" markerUnits="userSpaceOnUse" refY="5.2" refX="12" viewBox="0 0 11 11" class="marker cross flowchart" id="graph-div_flowchart-crossEnd"><path style="stroke-width: 2; stroke-dasharray: 1, 0;" class="arrowMarkerPath" d="M 1,1 l 9,9 M 10,1 l -9,9"></path></marker><marker orient="auto" markerHeight="11" markerWidth="11" markerUnits="userSpaceOnUse" refY="5.2" refX="-1" viewBox="0 0 11 11" class="marker cross flowchart" id="graph-div_flowchart-crossStart"><path style="stroke-width: 2; stroke-dasharray: 1, 0;" class="arrowMarkerPath" d="M 1,1 l 9,9 M 10,1 l -9,9"></path></marker><g class="root"><g class="clusters"></g><g class="edgePaths"><path marker-end="url(#graph-div_flowchart-pointEnd)" style="fill:none;" class="edge-thickness-normal edge-pattern-solid flowchart-link LS-A LE-B" id="L-A-B-0" d="M94.166,32.791L85.607,38.951C77.048,45.111,59.93,57.43,51.371,68.749C42.813,80.067,42.813,90.383,42.813,95.542L42.813,100.7"></path><path marker-end="url(#graph-div_flowchart-pointEnd)" style="fill:none;" class="edge-thickness-normal edge-pattern-solid flowchart-link LS-A LE-C" id="L-A-C-0" d="M138.744,32.791L147.303,38.951C155.862,45.111,172.98,57.43,181.539,68.749C190.098,80.067,190.098,90.383,190.098,95.542L190.098,100.7"></path><path marker-end="url(#graph-div_flowchart-pointEnd)" style="fill:none;" class="edge-thickness-normal edge-pattern-solid flowchart-link LS-B LE-D" id="L-B-D-0" d="M36.386,139.5L34.067,145.542C31.749,151.583,27.113,163.667,24.795,174.867C22.477,186.067,22.477,196.383,22.477,201.542L22.477,206.7"></path><path marker-end="url(#graph-div_flowchart-pointEnd)" style="fill:none;" class="edge-thickness-normal edge-pattern-solid flowchart-link LS-B LE-E" id="L-B-E-0" d="M57.719,139.5L63.095,145.542C68.472,151.583,79.225,163.667,87.261,174.962C95.298,186.257,100.617,196.764,103.276,202.018L105.936,207.271"></path><path marker-end="url(#graph-div_flowchart-pointEnd)" style="fill:none;" class="edge-thickness-normal edge-pattern-solid flowchart-link LS-C LE-E" id="L-C-E-0" d="M175.303,139.5L169.967,145.542C164.63,151.583,153.958,163.667,145.998,174.96C138.038,186.253,132.792,196.756,130.168,202.007L127.545,207.259"></path><path marker-end="url(#graph-div_flowchart-pointEnd)" style="fill:none;" class="edge-thickness-normal edge-pattern-solid flowchart-link LS-C LE-F" id="L-C-F-0" d="M196.525,139.5L198.843,145.542C201.161,151.583,205.797,163.667,208.115,174.867C210.434,186.067,210.434,196.383,210.434,201.542L210.434,206.7"></path></g><g class="edgeLabels"><g transform="translate(42.8125, 69.75)" class="edgeLabel"><g transform="translate(-10.3359375, -11.25)" class="label"><rect height="22.5" width="20.671875" ry="0" rx="0"></rect><g><rect height="22.5" width="20.671875" y="-2" x="-2" class="background"></rect><text y="-10.1"><tspan dy="1.1em" y="-0.1em" x="0" class="text-outer-tspan"><tspan font-weight="normal" class="text-inner-tspan" font-style="italic">Rc</tspan></tspan></text></g></g></g><g transform="translate(190.09765625, 69.75)" class="edgeLabel"><g transform="translate(-10.3359375, -11.25)" class="label"><rect height="22.5" width="20.671875" ry="0" rx="0"></rect><g><rect height="22.5" width="20.671875" y="-2" x="-2" class="background"></rect><text y="-10.1"><tspan dy="1.1em" y="-0.1em" x="0" class="text-outer-tspan"><tspan font-weight="normal" class="text-inner-tspan" font-style="italic">Rc</tspan></tspan></text></g></g></g><g transform="translate(22.4765625, 175.75)" class="edgeLabel"><g transform="translate(-10.3359375, -11.25)" class="label"><rect height="22.5" width="20.671875" ry="0" rx="0"></rect><g><rect height="22.5" width="20.671875" y="-2" x="-2" class="background"></rect><text y="-10.1"><tspan dy="1.1em" y="-0.1em" x="0" class="text-outer-tspan"><tspan font-weight="normal" class="text-inner-tspan" font-style="italic">Rc</tspan></tspan></text></g></g></g><g transform="translate(89.978515625, 175.75)" class="edgeLabel"><g transform="translate(-10.3359375, -11.25)" class="label"><rect height="22.5" width="20.671875" ry="0" rx="0"></rect><g><rect height="22.5" width="20.671875" y="-2" x="-2" class="background"></rect><text y="-10.1"><tspan dy="1.1em" y="-0.1em" x="0" class="text-outer-tspan"><tspan font-weight="normal" class="text-inner-tspan" font-style="italic">Rc</tspan></tspan></text></g></g></g><g transform="translate(143.28515625, 175.75)" class="edgeLabel"><g transform="translate(-10.3359375, -11.25)" class="label"><rect height="22.5" width="20.671875" ry="0" rx="0"></rect><g><rect height="22.5" width="20.671875" y="-2" x="-2" class="background"></rect><text y="-10.1"><tspan dy="1.1em" y="-0.1em" x="0" class="text-outer-tspan"><tspan font-weight="normal" class="text-inner-tspan" font-style="italic">Rc</tspan></tspan></text></g></g></g><g transform="translate(210.43359375, 175.75)" class="edgeLabel"><g transform="translate(-10.3359375, -11.25)" class="label"><rect height="22.5" width="20.671875" ry="0" rx="0"></rect><g><rect height="22.5" width="20.671875" y="-2" x="-2" class="background"></rect><text y="-10.1"><tspan dy="1.1em" y="-0.1em" x="0" class="text-outer-tspan"><tspan font-weight="normal" class="text-inner-tspan" font-style="italic">Rc</tspan></tspan></text></g></g></g></g><g class="nodes"><g transform="translate(116.455078125, 16.75)" id="flowchart-A-8195" class="node default default flowchart-label"><rect height="33.5" width="44.578125" y="-16.75" x="-22.2890625" ry="0" rx="0" style="" class="basic label-container"></rect><g transform="translate(0, -9.25)" style="" class="label"><rect></rect><text style=""><tspan class="row" x="0" dy="1em" xml:space="preserve">A(1)</tspan></text></g></g><g transform="translate(42.8125, 122.75)" id="flowchart-B-8196" class="node default default flowchart-label"><rect height="33.5" width="44.1953125" y="-16.75" x="-22.09765625" ry="0" rx="0" style="" class="basic label-container"></rect><g transform="translate(0, -9.25)" style="" class="label"><rect></rect><text style=""><tspan class="row" x="0" dy="1em" xml:space="preserve">B(1)</tspan></text></g></g><g transform="translate(190.09765625, 122.75)" id="flowchart-C-8197" class="node default default flowchart-label"><rect height="33.5" width="44.7109375" y="-16.75" x="-22.35546875" ry="0" rx="0" style="" class="basic label-container"></rect><g transform="translate(0, -9.25)" style="" class="label"><rect></rect><text style=""><tspan class="row" x="0" dy="1em" xml:space="preserve">C(1)</tspan></text></g></g><g transform="translate(22.4765625, 228.75)" id="flowchart-D-8198" class="node default default flowchart-label"><rect height="33.5" width="44.953125" y="-16.75" x="-22.4765625" ry="0" rx="0" style="" class="basic label-container"></rect><g transform="translate(0, -9.25)" style="" class="label"><rect></rect><text style=""><tspan class="row" x="0" dy="1em" xml:space="preserve">D(1)</tspan></text></g></g><g transform="translate(116.80859375, 228.75)" id="flowchart-E-8199" class="node default rust flowchart-label"><rect height="33.5" width="43.7109375" y="-16.75" x="-21.85546875" ry="0" rx="0" style="" class="basic label-container"></rect><g transform="translate(0, -9.25)" style="" class="label"><rect></rect><text style=""><tspan class="row" x="0" dy="1em" xml:space="preserve">E(2)</tspan></text></g></g><g transform="translate(210.43359375, 228.75)" id="flowchart-F-8200" class="node default default flowchart-label"><rect height="33.5" width="43.5390625" y="-16.75" x="-21.76953125" ry="0" rx="0" style="" class="basic label-container"></rect><g transform="translate(0, -9.25)" style="" class="label"><rect></rect><text style=""><tspan class="row" x="0" dy="1em" xml:space="preserve">F(1)</tspan></text></g></g></g></g></g></svg>